<svg id="logo" xmlns="http://www.w3.org/2000/svg" xmlns:xlink="http://www.w3.org/1999/xlink" width="115.925" height="58.575" viewBox="0 0 115.925 58.575">
  <defs>
    <clipPath id="clip-path">
      <rect id="Rectangle_1" data-name="Rectangle 1" width="115.925" height="58.575" fill="none"/>
    </clipPath>
  </defs>
  <g id="Group_2" data-name="Group 2">
    <g id="Group_1" data-name="Group 1" clip-path="url(#clip-path)">
      <path id="Path_1" data-name="Path 1" d="M271.9,38.086c-5.5-5.727-11.8-1.311-18.535-6.539-11.666-7.972-8.8-26.58,4.717-30.7,16.777-5.265,29.9,15.107,18.069,28.16-.394,1.153-1.982-2.358-2.4-2.752-1.029-1.942-2.792-3.59-3.27-5.772-.139-1.794.505-3.563.329-5.375.062-1.158-.421-2.258-.4-3.407-.312-1.022,1.484-3.9.321-4-2.547.246-2.355,3.51-3.072,5.323-1.5,2.264-3.712-1.476-4.305-2.868-.513-1.152-3.659-8.9-4.922-6.521a1.879,1.879,0,0,0-.131,1.411c.665,2.254,2.3,4.119,3.173,6.295.722,2.93-2.287-.865-2.631-1.643-1.145-1.558-2.134-3.51-3.847-4.5a1.355,1.355,0,0,0-1.037-.146c-2.514.7,4.954,7.216,5.221,8.65.234,2.96-6.053-4.342-7.365-4.288-3.69.533,4.525,6.351,5.433,7.293,1.085.961-.471.327-.993.046-1.607-.712-2.879-2.007-4.544-2.6-1.319-.19-.638,1.5.022,1.9a20.222,20.222,0,0,0,2.984,2.182,18.839,18.839,0,0,1,3.862,3.126,7.954,7.954,0,0,0,1.057.961c.419.257,2.128,1.943,2.288,1.39-.59-1.06-1.7-1.732-2.145-2.921-.071-.661-2.23-1.607-1.184-1.839a1.315,1.315,0,0,1,1.036.2c.577.4.994,1.137,1.748,1.008,1.113-1.62-.449-3.635-.23-5.426a.432.432,0,0,1,.826-.22,1.465,1.465,0,0,0,.077.146c.48.8.1,3.556.995,3.4.41-.675-.236-3.05.163-3.992a.5.5,0,0,1,.94.089c.265,1.219-.4,2.671-.016,3.8a.23.23,0,0,0,.409.05c.567-.846.407-2.161.875-3.084.4-.963.912-.094.816.548a1.318,1.318,0,0,0-.017.222c.017.773-.533,1.756-.532,2.5a.185.185,0,0,0,.352.074c.406-.856.885-2.722,1.257-1.866a1.117,1.117,0,0,1,.072.629c-.174,1.035-.838,1.923-.96,2.959a2.129,2.129,0,0,0-.011.221,5.507,5.507,0,0,1-.363,1.743,7.382,7.382,0,0,0-.236,4.154c1.04,4.363,3.865,8.118,6.112,11.965" transform="translate(-213.811 0)" fill="#b92056"/>
    </g>
  </g>
  <path id="Path_2" data-name="Path 2" d="M0,265.465v23.393H5.31v-9.406h8.4v-4.3H5.31V269.8H14.3v-4.338Z" transform="translate(0 -230.664)" fill="#25304e"/>
  <g id="Group_4" data-name="Group 4">
    <g id="Group_3" data-name="Group 3" clip-path="url(#clip-path)">
      <path id="Path_3" data-name="Path 3" d="M213.537,317.328c0-2.117-.069-3.922-.139-5.414h4.581l.243,2.325h.1a6.213,6.213,0,0,1,5.241-2.707c3.471,0,6.074,2.291,6.074,7.289v10.065h-5.276V319.48c0-2.187-.764-3.679-2.672-3.679a2.816,2.816,0,0,0-2.672,1.978,3.623,3.623,0,0,0-.208,1.319v9.788h-5.276Z" transform="translate(-185.423 -270.693)" fill="#25304e"/>
      <path id="Path_4" data-name="Path 4" d="M384.118,255.934v19.575c0,1.909.069,3.922.139,5.067h-4.686l-.243-2.5h-.069a5.925,5.925,0,0,1-5.31,2.881c-4.026,0-7.254-3.436-7.254-8.711-.035-5.727,3.54-9.024,7.6-9.024,2.082,0,3.714.729,4.477,1.909h.069v-9.2Zm-5.276,14.855a8.54,8.54,0,0,0-.069-.937,3.169,3.169,0,0,0-3.089-2.6c-2.395,0-3.644,2.152-3.644,4.824,0,2.881,1.423,4.685,3.61,4.685a3.088,3.088,0,0,0,3.054-2.534,4.489,4.489,0,0,0,.139-1.215Z" transform="translate(-318.624 -222.383)" fill="#25304e"/>
      <path id="Path_5" data-name="Path 5" d="M535.489,317.328c0-2.117-.07-3.922-.139-5.414h4.443l.243,2.291h.1a5.885,5.885,0,0,1,5.137-2.673,4.81,4.81,0,0,1,4.651,2.881H550a7.6,7.6,0,0,1,2.187-2.048,6.122,6.122,0,0,1,3.228-.833c3.262,0,5.727,2.291,5.727,7.358v10H556v-9.232c0-2.464-.8-3.887-2.5-3.887a2.582,2.582,0,0,0-2.429,1.839,4.412,4.412,0,0,0-.208,1.354v9.926h-5.137v-9.51c0-2.152-.764-3.609-2.43-3.609a2.685,2.685,0,0,0-2.464,1.909,3.5,3.5,0,0,0-.208,1.319v9.892h-5.137Z" transform="translate(-465.17 -270.693)" fill="#b92056"/>
      <path id="Path_6" data-name="Path 6" d="M766.225,322.083c.174,2.186,2.326,3.228,4.79,3.228a14.945,14.945,0,0,0,4.685-.694l.694,3.575a16.754,16.754,0,0,1-6.143,1.041c-5.761,0-9.058-3.332-9.058-8.642,0-4.3,2.672-9.059,8.573-9.059,5.484,0,7.566,4.269,7.566,8.469a12.54,12.54,0,0,1-.173,2.083Zm6.213-3.61c0-1.284-.555-3.436-2.985-3.436-2.221,0-3.124,2.013-3.262,3.436Z" transform="translate(-661.407 -270.693)" fill="#25304e"/>
      <path id="Path_7" data-name="Path 7" d="M140.9,301.824a.99.99,0,0,1-.827.448.979.979,0,0,1-.825-.448l-1.832-2.83v19h5.276V299.058Z" transform="translate(-119.398 -259.798)" fill="#25304e"/>
      <path id="Path_8" data-name="Path 8" d="M140.359,264.875a2.586,2.586,0,0,0-2.614,2.614,2.434,2.434,0,0,0,.41,1.353l1.929,2.98a.327.327,0,0,0,.275.149.332.332,0,0,0,.276-.149l1.929-2.98a2.432,2.432,0,0,0,.41-1.353,2.589,2.589,0,0,0-2.615-2.614m0,4.107a1.493,1.493,0,1,1,1.493-1.493,1.493,1.493,0,0,1-1.493,1.493" transform="translate(-119.688 -230.152)" fill="#b92056"/>
    </g>
  </g>
</svg>
