<svg xmlns="http://www.w3.org/2000/svg" width="22" height="22" viewBox="0 0 22 22">
  <g id="_-Product-Icons" data-name="ðŸ”-Product-Icons" transform="translate(-3 -3)">
    <g id="ic_fluent_qr_code_24_filled">
      <path id="_-Color" data-name="ðŸŽ¨-Color" d="M18.335,15v3.333h3.332v3.332H25V25H21.667V21.667H18.335V25H15V21.666h3.332V18.333H15V15ZM10.5,15A2.5,2.5,0,0,1,13,17.5v5A2.5,2.5,0,0,1,10.5,25h-5A2.5,2.5,0,0,1,3,22.5v-5A2.5,2.5,0,0,1,5.5,15Zm0,2h-5a.5.5,0,0,0-.5.5v5a.5.5,0,0,0,.5.5h5a.5.5,0,0,0,.5-.5v-5A.5.5,0,0,0,10.5,17Zm-.75,1.25v3.5H6.25v-3.5ZM25,15v3.333H21.667V15ZM10.5,3A2.5,2.5,0,0,1,13,5.5v5A2.5,2.5,0,0,1,10.5,13h-5A2.5,2.5,0,0,1,3,10.5v-5A2.5,2.5,0,0,1,5.5,3Zm12,0A2.5,2.5,0,0,1,25,5.5v5A2.5,2.5,0,0,1,22.5,13h-5A2.5,2.5,0,0,1,15,10.5v-5A2.5,2.5,0,0,1,17.5,3Zm-12,2h-5a.5.5,0,0,0-.5.5v5a.5.5,0,0,0,.5.5h5a.5.5,0,0,0,.5-.5v-5A.5.5,0,0,0,10.5,5Zm12,0h-5a.5.5,0,0,0-.5.5v5a.5.5,0,0,0,.5.5h5a.5.5,0,0,0,.5-.5v-5A.5.5,0,0,0,22.5,5Zm-.75,1.25v3.5h-3.5V6.25Zm-12,0V9.747H6.253V6.253Z" fill="#fff"/>
    </g>
  </g>
</svg>
